<svg width="28" height="24" viewBox="0 0 28 24" fill="none" xmlns="http://www.w3.org/2000/svg">
<path fill-rule="evenodd" clip-rule="evenodd" d="M1.38752 0.412003C1.20278 0.334342 0.998964 0.31398 0.802509 0.353558C0.606053 0.393136 0.426021 0.490828 0.285759 0.633964C0.145497 0.777099 0.0514775 0.959076 0.0158922 1.15629C-0.0196931 1.35351 0.00479829 1.55687 0.0861898 1.74L4.21019 11H14.3329C14.5981 11 14.8524 11.1054 15.04 11.2929C15.2275 11.4804 15.3329 11.7348 15.3329 12C15.3329 12.2652 15.2275 12.5196 15.04 12.7071C14.8524 12.8946 14.5981 13 14.3329 13H4.21019L0.0861898 22.26C0.00479829 22.4431 -0.0196931 22.6465 0.0158922 22.8437C0.0514775 23.0409 0.145497 23.2229 0.285759 23.366C0.426021 23.5092 0.606053 23.6069 0.802509 23.6464C0.998964 23.686 1.20278 23.6657 1.38752 23.588L26.7209 12.9213C26.902 12.8449 27.0567 12.7167 27.1654 12.5528C27.2741 12.389 27.3321 12.1967 27.3321 12C27.3321 11.8033 27.2741 11.6111 27.1654 11.4472C27.0567 11.2833 26.902 11.1551 26.7209 11.0787L1.38752 0.412003Z" fill="#C01A20"/>
</svg>
