<svg width="50" height="50" viewBox="0 0 309 288" fill="none" xmlns="http://www.w3.org/2000/svg">
<path d="M266.967 66.8958V38.9394L224.483 15.476M266.967 66.8958L305.453 98.3467V140.281M266.967 66.8958L238.544 85.8184M229.481 186.21L253.089 199.273M305.453 140.281V173.729L270.966 210.172M305.453 140.281L261.969 111.826M270.966 210.172V241.623L202.18 279.273H168.726V261.818M270.966 210.172L253.089 199.273M224.483 15.476L200.726 5.81836H168.726V66.9093M224.483 15.476V60.4059M238.544 85.8184L209.453 65.4547M238.544 85.8184V129.455M222.544 234.182L253.089 199.273" stroke="#C01A20" stroke-width="5.60448"/>
<path d="M82.3247 17.9289L82.414 17.8795L82.4995 17.8239L105.559 2.80224H136.834V93.1978H110.545H107.743V96V203.636V204.797L108.564 205.618L136.834 233.888V285.198H104.129L37.2894 240.133V210.172V209.056L36.5226 208.246L2.80224 172.613V140.281V99.6755L40.2589 69.0655L41.288 68.2245V66.8956V40.5928L82.3247 17.9289Z" fill="#C01A20" stroke="white" stroke-width="5.60448"/>
<path d="M136.727 192V154.517V116.363H151.272" stroke="#C11A21" stroke-width="5.56364"/>
<path d="M165.197 235.636H194.179V206.545H165.197V235.636Z" fill="#C01A20"/>
<path d="M193.576 90.1816H165.197V119.272H193.576V148.363H165.197V177.454H223.161V119.272L193.576 90.1816Z" fill="#C01A20"/>
</svg>
